<svg width="113" height="32" viewBox="0 0 113 32" fill="none" xmlns="http://www.w3.org/2000/svg">
<path d="M12.2053 0.467454L12.5666 1.92234C11.1452 2.27059 9.78481 2.83106 8.53166 3.58471L7.75879 2.29981C9.13976 1.46921 10.6389 0.851437 12.2053 0.467454ZM19.9139 0.467454L19.5526 1.92234C20.974 2.27059 22.3344 2.83106 23.5875 3.58471L24.3654 2.29981C22.9829 1.46874 21.4821 0.85096 19.9139 0.467454ZM2.30856 7.72939C1.4748 9.10513 0.854675 10.5986 0.469232 12.159L1.92965 12.519C2.27923 11.103 2.84182 9.74773 3.59835 8.49933L2.30856 7.72939ZM1.50558 15.9987C1.50509 15.2716 1.55962 14.5454 1.66868 13.8264L0.180661 13.6014C-0.0602204 15.1906 -0.0602204 16.8069 0.180661 18.3961L1.66868 18.1711C1.55962 17.4521 1.50509 16.7259 1.50558 15.9987ZM24.3604 29.6977L23.5875 28.4128C22.3359 29.166 20.9773 29.7264 19.5576 30.0752L19.9189 31.53C21.4836 31.1456 22.981 30.5278 24.3604 29.6977ZM30.6136 15.9987C30.6141 16.7259 30.5596 17.4521 30.4505 18.1711L31.9385 18.3961C32.1794 16.8069 32.1794 15.1906 31.9385 13.6014L30.4505 13.8264C30.5596 14.5454 30.6141 15.2716 30.6136 15.9987ZM31.65 19.8385L30.1895 19.4785C29.84 20.8945 29.2774 22.2498 28.5209 23.4982L29.8106 24.2731C30.6449 22.8958 31.265 21.4007 31.65 19.8385ZM18.2402 30.3376C16.7946 30.5543 15.3246 30.5543 13.879 30.3376L13.6532 31.82C15.2484 32.06 16.8708 32.06 18.466 31.82L18.2402 30.3376ZM27.7756 24.6006C26.9075 25.7718 25.868 26.8065 24.6916 27.6703L25.585 28.8777C26.8826 27.9272 28.0296 26.788 28.9876 25.498L27.7756 24.6006ZM24.6916 4.32716C25.8682 5.19172 26.9077 6.22735 27.7756 7.39942L28.9876 6.49949C28.0327 5.21028 26.8891 4.07103 25.595 3.11975L24.6916 4.32716ZM4.34361 7.39942C5.21147 6.22735 6.25104 5.19172 7.42756 4.32716L6.52421 3.11975C5.23009 4.07103 4.08651 5.21028 3.13161 6.49949L4.34361 7.39942ZM29.8106 7.72939L28.5209 8.49933C29.2769 9.74618 29.8395 11.0997 30.1895 12.514L31.65 12.154C31.264 10.5953 30.6439 9.10358 29.8106 7.72939ZM13.879 1.66236C15.3246 1.4457 16.7946 1.4457 18.2402 1.66236L18.466 0.179977C16.8708 -0.0599923 15.2484 -0.0599923 13.6532 0.179977L13.879 1.66236ZM5.11648 29.2752L2.00744 29.9977L2.73263 26.9004L1.26719 26.5579L0.542003 29.6552C0.483592 29.9037 0.489793 30.1629 0.560019 30.4083C0.630246 30.6538 0.762174 30.8773 0.943321 31.0578C1.12447 31.2382 1.34884 31.3696 1.59521 31.4396C1.84157 31.5096 2.10179 31.5157 2.35122 31.4575L5.45775 30.7476L5.11648 29.2752ZM1.58086 25.2205L3.0463 25.5605L3.54816 23.4132C2.81666 22.1884 2.27124 20.8624 1.92965 19.4785L0.469232 19.8385C0.796624 21.164 1.29423 22.4419 1.94973 23.6407L1.58086 25.2205ZM8.60694 28.4703L6.45144 28.9702L6.7927 30.4301L8.37859 30.0627C9.58188 30.7157 10.8647 31.2114 12.1953 31.5375L12.5566 30.0827C11.1703 29.7383 9.84272 29.1916 8.61697 28.4603L8.60694 28.4703ZM16.0596 2.99976C13.7282 3.00096 11.4397 3.62442 9.43213 4.80528C7.42455 5.98615 5.77123 7.68129 4.64412 9.7144C3.51701 11.7475 2.95727 14.0443 3.02313 16.366C3.08899 18.6876 3.77804 20.9493 5.01862 22.9157L3.76396 28.2478L9.11633 26.9979C10.8282 28.072 12.7673 28.7349 14.7805 28.9341C16.7937 29.1333 18.8259 28.8634 20.7164 28.1458C22.6069 27.4282 24.3041 26.2824 25.6737 24.7991C27.0434 23.3158 28.048 21.5355 28.6084 19.5989C29.1687 17.6623 29.2693 15.6224 28.9022 13.6404C28.5352 11.6584 27.7105 9.78854 26.4934 8.1786C25.2763 6.56866 23.7001 5.2627 21.8893 4.36391C20.0785 3.46511 18.0827 2.9981 16.0596 2.99976Z" fill="#3B45FD"/>
<path d="M48.7327 12.0918H52.4897C52.4354 8.79972 49.7195 6.52684 45.5913 6.52684C41.5266 6.52684 38.5481 8.76365 38.5663 12.1188C38.5572 14.8427 40.4855 16.403 43.6178 17.1516L45.6366 17.6567C47.6554 18.1438 48.778 18.721 48.787 19.9657C48.778 21.3186 47.4925 22.2386 45.5008 22.2386C43.4639 22.2386 41.9973 21.3006 41.8706 19.4516H38.0774C38.177 23.4472 41.0468 25.5126 45.5461 25.5126C50.0726 25.5126 52.7341 23.357 52.7432 19.9747C52.7341 16.8991 50.4075 15.2666 47.1847 14.5451L45.5189 14.1482C43.9075 13.7784 42.5586 13.1831 42.5858 11.8573C42.5858 10.6667 43.645 9.79185 45.5642 9.79185C47.4381 9.79185 48.5879 10.6397 48.7327 12.0918Z" fill="#3B45FD"/>
<path d="M55.3074 25.251H59.164V11.3973H55.3074V25.251ZM57.2448 9.61146C58.3945 9.61146 59.336 8.73659 59.336 7.66328C59.336 6.599 58.3945 5.72412 57.2448 5.72412C56.1041 5.72412 55.1626 6.599 55.1626 7.66328C55.1626 8.73659 56.1041 9.61146 57.2448 9.61146Z" fill="#3B45FD"/>
<path d="M68.5179 30.6446C72.4922 30.6446 75.3167 28.8407 75.3167 25.3863V11.3973H71.4873V13.7243H71.3425C70.8265 12.5969 69.6948 11.2169 67.3682 11.2169C64.3174 11.2169 61.7373 13.58 61.7373 18.2971C61.7373 22.906 64.245 25.0526 67.3773 25.0526C69.5952 25.0526 70.8355 23.9432 71.3425 22.7978H71.5054V25.3322C71.5054 27.1451 70.2833 27.8847 68.6085 27.8847C66.9065 27.8847 66.0465 27.1451 65.7296 26.3965L62.1628 26.8745C62.6245 28.967 64.77 30.6446 68.5179 30.6446ZM68.5994 22.1664C66.7074 22.1664 65.6753 20.6692 65.6753 18.2791C65.6753 15.925 66.6892 14.2745 68.5994 14.2745C70.4734 14.2745 71.5235 15.8529 71.5235 18.2791C71.5235 20.7233 70.4553 22.1664 68.5994 22.1664Z" fill="#3B45FD"/>
<path d="M82.2422 17.2418C82.2513 15.456 83.3195 14.4098 84.8766 14.4098C86.4247 14.4098 87.3571 15.4199 87.3481 17.1156V25.251H91.2047V16.4301C91.2047 13.2012 89.3035 11.2169 86.4066 11.2169C84.3425 11.2169 82.8488 12.2271 82.2241 13.8415H82.0612V11.3973H78.3857V25.251H82.2422V17.2418Z" fill="#3B45FD"/>
<path d="M98.2094 25.5126C100.264 25.5126 101.595 24.6197 102.274 23.3299H102.383V25.251H106.04V15.907C106.04 12.6059 103.234 11.2169 100.138 11.2169C96.8062 11.2169 94.6154 12.8043 94.0812 15.3297L97.6481 15.6184C97.9106 14.6984 98.7344 14.0219 100.12 14.0219C101.432 14.0219 102.184 14.6803 102.184 15.8168V15.8709C102.184 16.7638 101.233 16.8811 98.8159 17.1156C96.0638 17.3681 93.5924 18.2881 93.5924 21.3817C93.5924 24.1236 95.5569 25.5126 98.2094 25.5126ZM99.3138 22.8609C98.1279 22.8609 97.2769 22.3107 97.2769 21.2555C97.2769 20.1731 98.1732 19.641 99.5311 19.4516C100.373 19.3343 101.749 19.1359 102.211 18.8292V20.2994C102.211 21.7515 101.007 22.8609 99.3138 22.8609Z" fill="#3B45FD"/>
<path d="M112.889 6.77939H109.032V25.251H112.889V6.77939Z" fill="#3B45FD"/>
</svg>
